<?xml version="1.0" standalone="no"?>
<!DOCTYPE svg PUBLIC "-//W3C//DTD SVG 20010904//EN"
 "http://www.w3.org/TR/2001/REC-SVG-20010904/DTD/svg10.dtd">
<svg version="1.0" xmlns="http://www.w3.org/2000/svg"
 width="533.000000pt" height="533.000000pt" viewBox="0 0 533.000000 533.000000"
 preserveAspectRatio="xMidYMid meet">

<g transform="translate(0.000000,533.000000) scale(0.100000,-0.100000)"
fill="#000000" stroke="none">
<path d="M0 2665 l0 -2665 2665 0 2665 0 0 2665 0 2665 -2665 0 -2665 0 0
-2665z m4340 880 c144 -38 255 -117 304 -214 105 -209 22 -442 -195 -550 l-78
-39 52 -30 c62 -35 107 -83 142 -152 23 -46 37 -89 115 -368 17 -62 40 -133
50 -158 l19 -44 -119 0 -119 0 -21 56 c-11 31 -40 132 -65 224 -69 262 -95
309 -202 362 -64 31 -70 32 -219 36 l-154 4 0 -341 0 -341 -115 0 -115 0 0
775 0 774 33 6 c96 18 194 23 397 21 175 -3 239 -7 290 -21z m-2600 -737 c156
-414 290 -768 297 -785 l13 -33 -122 0 -123 0 -91 243 -91 242 -308 0 -308 0
-74 -200 c-40 -110 -80 -219 -89 -242 l-16 -43 -114 0 c-63 0 -114 3 -114 8 0
4 131 357 292 785 l292 777 136 0 136 0 284 -752z m1398 230 l2 -467 113 -3
112 -3 3 -82 3 -83 -116 0 -115 0 0 -205 0 -205 -110 0 -110 0 0 205 0 205
-390 0 -390 0 0 68 0 69 376 487 377 487 121 -3 121 -3 3 -467z"/>
<path d="M3878 3403 l-28 -4 0 -286 0 -285 183 4 c182 3 182 3 251 36 119 56
176 140 176 257 0 140 -91 240 -248 274 -50 10 -274 13 -334 4z"/>
<path d="M1286 3289 c-14 -48 -26 -90 -26 -94 0 -4 -45 -127 -100 -275 -55
-147 -100 -270 -100 -274 0 -3 115 -6 255 -6 140 0 255 2 255 5 0 2 -34 96
-76 207 -43 112 -100 275 -129 363 l-52 160 -27 -86z"/>
<path d="M2906 3278 c-7 -13 -37 -60 -65 -106 -29 -46 -140 -194 -248 -330
-108 -136 -200 -253 -206 -259 -7 -10 46 -13 262 -13 l271 0 2 365 c2 201 2
365 1 365 -2 0 -9 -10 -17 -22z"/>
</g>
</svg>
